<svg xmlns="http://www.w3.org/2000/svg" width="80" height="80" fill="currentColor" viewBox="0 0 80 80">
  <mask id="a" width="80" height="80" x="0" y="0" maskUnits="userSpaceOnUse" style="mask-type:alpha">
    <path d="M0 0h80v80H0z"/>
  </mask>
  <g mask="url(#a)">
    <path d="M34.5 57.404c.778.611 1.583 1.055 2.417 1.333a8.115 8.115 0 0 0 2.583.417c1.722 0 3.278-.542 4.667-1.625 1.389-1.083 2.222-2.625 2.5-4.625.277-2.722-.584-4.764-2.584-6.125a14.24 14.24 0 0 1-4.666-5.208c-.278.889-.43 1.639-.459 2.25-.027.61.07 1.36.292 2.25.167 1.11.389 2.07.667 2.875.277.805.305 1.736.083 2.791-.278 1.167-.903 2.292-1.875 3.375-.972 1.084-2.18 1.847-3.625 2.292ZM6.169 73.83V6.148h67.683v67.683H6.168ZM40 63.154c2.944 0 5.43-1.014 7.458-3.042 2.028-2.028 3.042-4.514 3.042-7.458 0-1.304-.292-2.484-.875-3.54-.583-1.055-1.32-1.875-2.208-2.46-2.334-1.445-4.18-3.264-5.542-5.458-1.361-2.195-2.347-4.125-2.958-5.792-3 1.944-5.334 4.361-7 7.25-1.667 2.889-2.5 6.139-2.5 9.75 0 4.037 1.055 6.838 3.166 8.403 2.111 1.565 4.584 2.347 7.417 2.347Zm-28.154 5h7.935v-5h7.92a13.898 13.898 0 0 1-2.639-4.74c-.576-1.767-.864-3.773-.864-6.017 0-2.593.364-5.06 1.093-7.4.729-2.34 1.832-4.558 3.311-6.655 1.48-2.096 3.298-4.053 5.457-5.871 2.159-1.818 4.668-3.496 7.528-5.036.564 3.133 1.546 5.842 2.947 8.13 1.401 2.286 3.325 4.472 5.772 6.556 1.956 1.622 3.347 3.252 4.173 4.89.827 1.637 1.24 3.519 1.24 5.643 0 2.098-.351 4.056-1.053 5.875s-1.714 3.36-3.034 4.625h8.587v5h7.935V11.846H11.846v56.308Z"/>
  </g>
</svg>
